<svg width="13" height="12" viewBox="0 0 13 12" fill="none" xmlns="http://www.w3.org/2000/svg">
<g id="large/right/rounded">
<path id="Union" d="M7.63781 1.67007C7.86457 1.44331 8.23221 1.44331 8.45897 1.67007L12.3299 5.54104C12.386 5.59715 12.4283 5.66189 12.4566 5.73099C12.4835 5.79646 12.4988 5.86794 12.4999 5.94285C12.5 5.94903 12.5 5.9552 12.4999 5.96137C12.4987 6.03624 12.4833 6.10765 12.4563 6.17306C12.4423 6.20696 12.425 6.23981 12.4043 6.2711C12.3831 6.3033 12.3583 6.33385 12.3299 6.36219L8.45897 10.2332C8.23221 10.4599 7.86457 10.4599 7.63781 10.2332C7.41105 10.0064 7.41105 9.63876 7.63781 9.412L10.5176 6.53226L1.08065 6.53226C0.759964 6.53226 0.5 6.27229 0.5 5.95161C0.5 5.63093 0.759964 5.37097 1.08065 5.37097L10.5176 5.37097L7.63781 2.49122C7.41105 2.26447 7.41105 1.89682 7.63781 1.67007Z" fill="white"/>
</g>
</svg>
