<svg xmlns="http://www.w3.org/2000/svg" width="12" height="12" viewBox="0 0 12 12" fill="none">
  <path d="M4.86219 10.2332C4.63543 10.4599 4.26779 10.4599 4.04103 10.2332L0.170066 6.36219C0.0594641 6.25159 0.00280918 6.10747 0.000101689 5.96253C-3.46868e-05 5.95523 -3.37337e-05 5.94793 0.000103595 5.94063C0.00147879 5.86653 0.0167357 5.79581 0.0433851 5.73099C0.0717264 5.66189 0.113953 5.59715 0.170066 5.54104L4.04103 1.67007C4.26779 1.44331 4.63543 1.44331 4.86219 1.67007C5.08895 1.89682 5.08895 2.26447 4.86219 2.49122L1.98245 5.37097L11.4194 5.37097C11.74 5.37097 12 5.63093 12 5.95161C12 6.27229 11.74 6.53226 11.4194 6.53226L1.98245 6.53226L4.86219 9.412C5.08895 9.63876 5.08895 10.0064 4.86219 10.2332Z" fill="#FBAB34"/>
</svg>