<svg width="40" height="40" viewBox="0 0 40 40" fill="none" xmlns="http://www.w3.org/2000/svg">
<path fill-rule="evenodd" clip-rule="evenodd" d="M17.1554 4.32372C18.0596 4.16251 18.9971 4.0625 19.9667 4.0625C23.0247 4.0625 25.8796 4.9264 28.3056 6.41679C28.9453 5.91099 29.7541 5.60913 30.6333 5.60913C32.7026 5.60913 34.3858 7.28539 34.3858 9.35663C34.3858 11.4262 32.706 13.1008 30.635 13.1008L30.634 13.1008C28.5664 13.0986 26.8825 11.4255 26.8825 9.3533C26.8825 8.84519 26.9838 8.36089 27.1672 7.91934C25.0603 6.66231 22.6002 5.9375 19.9667 5.9375C19.1262 5.9375 18.3004 6.02416 17.4845 6.16961C16.9748 6.26049 16.4879 5.92095 16.397 5.41122C16.3062 4.90149 16.6457 4.4146 17.1554 4.32372ZM29.0818 8.30204C28.877 8.60179 28.7575 8.96385 28.7575 9.3533C28.7575 10.3844 29.5967 11.2245 30.6357 11.2258C31.6744 11.2254 32.5108 10.3868 32.5108 9.35663C32.5108 8.32454 31.6707 7.48413 30.6333 7.48413C30.0837 7.48413 29.5906 7.71884 29.2481 8.09248C29.2369 8.11172 29.2248 8.13069 29.2121 8.14937C29.1734 8.20588 29.1296 8.25684 29.0818 8.30204Z" fill="#FBAB34"/>
<path fill-rule="evenodd" clip-rule="evenodd" d="M20.6622 14.348C20.2963 13.9828 19.7037 13.9828 19.3378 14.348L14.3378 19.338C14.1615 19.5139 14.0625 19.7527 14.0625 20.0017C14.0625 20.2507 14.1616 20.4894 14.3379 20.6653L19.3379 25.6536C19.7038 26.0187 20.2962 26.0187 20.6621 25.6536L25.6621 20.6653C25.8384 20.4894 25.9375 20.2507 25.9375 20.0017C25.9375 19.7527 25.8385 19.5139 25.6623 19.338L20.6622 14.348ZM20 23.6656L16.3273 20.0015L20 16.3361L23.6727 20.0015L20 23.6656Z" fill="#FBAB34"/>
<path fill-rule="evenodd" clip-rule="evenodd" d="M35.9375 20.0016C35.9375 23.0531 35.0725 25.9013 33.5799 28.3221C34.7486 29.7926 34.6514 31.9352 33.2886 33.2939C33.0794 33.5025 32.8518 33.6812 32.611 33.8302C32.0372 34.186 31.3604 34.3917 30.636 34.3925C28.9283 34.3943 27.4874 33.2567 27.0332 31.6977C26.6612 30.4268 26.9779 28.9983 27.9831 27.9961C28.8476 27.1342 30.0278 26.7806 31.1514 26.9353C31.4748 26.9794 31.785 27.0646 32.0766 27.1855C33.3365 25.0832 34.0625 22.629 34.0625 20.0016C34.0625 19.163 33.9759 18.3389 33.8304 17.5248C33.7394 17.0151 34.0788 16.5281 34.5885 16.437C35.0982 16.346 35.5852 16.6854 35.6762 17.1951C35.8375 18.0977 35.9375 19.0336 35.9375 20.0016ZM31.8442 29.2277C31.7891 29.1898 31.7394 29.1472 31.6951 29.1007C31.4644 28.9434 31.2064 28.8431 30.9408 28.7997C30.8422 28.7839 30.7409 28.7757 30.6377 28.7758L30.6367 28.7758C29.598 28.7758 28.7592 29.6158 28.7592 30.6483C28.7592 30.8527 28.792 31.0495 28.8527 31.2337C28.9417 31.5013 29.0931 31.7529 29.3069 31.9661C29.9824 32.6396 31.0437 32.6933 31.7808 32.1273C32.2263 31.7843 32.5125 31.2469 32.5125 30.645C32.5125 30.2184 32.3697 29.8251 32.1289 29.5105C32.079 29.4456 32.0243 29.3833 31.9648 29.3239C31.9444 29.3037 31.9238 29.284 31.9028 29.2649C31.8829 29.2533 31.8634 29.2409 31.8442 29.2277Z" fill="#FBAB34"/>
<path fill-rule="evenodd" clip-rule="evenodd" d="M6.41952 11.6805C4.92729 14.1014 4.0625 16.9506 4.0625 20.0017C4.0625 20.9698 4.16253 21.9056 4.32378 22.8083C4.41483 23.3179 4.90183 23.6573 5.41153 23.5663C5.92123 23.4752 6.26061 22.9882 6.16956 22.4785C6.02413 21.6645 5.9375 20.8403 5.9375 20.0017C5.9375 17.3747 6.66331 14.9196 7.92262 12.8174C8.36633 13.0015 8.85316 13.103 9.36384 13.1025C11.4349 13.1022 13.1158 11.4257 13.1158 9.35498C13.1158 7.28446 11.4366 5.60886 9.3645 5.61081C7.29342 5.61108 5.61251 7.2876 5.61251 9.35831C5.61251 10.2359 5.91416 11.0425 6.41952 11.6805ZM8.15585 10.774C8.21341 10.8135 8.26517 10.8584 8.31094 10.9074C8.61052 11.1098 8.97226 11.2279 9.36234 11.2275H9.36334C10.402 11.2275 11.2408 10.3874 11.2408 9.35498C11.2408 8.32233 10.4037 7.4847 9.36601 7.48581L9.36501 7.48581C8.32633 7.48581 7.48751 8.32586 7.48751 9.35831C7.48751 9.90171 7.71932 10.3911 8.09018 10.7327C8.11243 10.7455 8.13434 10.7592 8.15585 10.774Z" fill="#FBAB34"/>
<path fill-rule="evenodd" clip-rule="evenodd" d="M12.8328 32.0806C13.0162 31.6391 13.1175 31.1547 13.1175 30.6466C13.1175 28.5745 11.4336 26.9013 9.36601 26.8991H9.365C7.29404 26.8991 5.61417 28.5737 5.61417 30.6433C5.61417 32.7145 7.29738 34.3908 9.36667 34.3908C10.2459 34.3908 11.0546 34.0889 11.6943 33.5832C14.1204 35.0736 16.9752 35.9375 20.0333 35.9375C21.0029 35.9375 21.9404 35.8375 22.8446 35.6763C23.3543 35.5854 23.6938 35.0985 23.603 34.5888C23.5121 34.0791 23.0252 33.7395 22.5155 33.8304C21.6996 33.9758 20.8738 34.0625 20.0333 34.0625C17.3998 34.0625 14.9397 33.3377 12.8328 32.0806ZM10.918 31.6982C10.8702 31.7433 10.8265 31.7942 10.7879 31.8506C10.7752 31.8692 10.7633 31.8881 10.7521 31.9072C10.4095 32.281 9.91641 32.5158 9.36667 32.5158C8.32929 32.5158 7.48917 31.6754 7.48917 30.6433C7.48917 29.613 8.32568 28.7744 9.36449 28.7741C10.4033 28.7755 11.2425 29.6156 11.2425 30.6466C11.2425 31.0362 11.1229 31.3983 10.918 31.6982Z" fill="#FBAB34"/>
</svg>
