<svg width="40" height="40" viewBox="0 0 40 40" fill="none" xmlns="http://www.w3.org/2000/svg">
<path fill-rule="evenodd" clip-rule="evenodd" d="M5 4.0625C5.51777 4.0625 5.9375 4.48223 5.9375 5V31.6667C5.9375 32.9906 7.00943 34.0625 8.33333 34.0625H35C35.5178 34.0625 35.9375 34.4822 35.9375 35C35.9375 35.5178 35.5178 35.9375 35 35.9375H8.33333C5.9739 35.9375 4.0625 34.0261 4.0625 31.6667V5C4.0625 4.48223 4.48223 4.0625 5 4.0625Z" fill="#FBAB34"/>
<path fill-rule="evenodd" clip-rule="evenodd" d="M35.6001 9.27977C35.9979 9.61122 36.0517 10.2024 35.7202 10.6001L28.0569 19.7968C27.4165 20.5647 26.3951 20.8982 25.4249 20.6563L25.4241 20.6561L20.7876 19.4962C20.5166 19.4284 20.2298 19.5216 20.0502 19.7369V19.7369L12.3869 28.9335C12.0554 29.3313 11.4643 29.385 11.0665 29.0536C10.6687 28.7221 10.615 28.131 10.9464 27.7332L18.6098 18.5365C19.2502 17.7686 20.2735 17.4349 21.2424 17.6772L25.8785 18.837V18.837C26.1514 18.905 26.4369 18.8117 26.6165 18.5965V18.5965L34.2798 9.39985C34.6112 9.00208 35.2024 8.94832 35.6001 9.27977Z" fill="#FBAB34"/>
</svg>
