<svg xmlns="http://www.w3.org/2000/svg" width="16" height="16" viewBox="0 0 16 16" fill="none">
  <path fill-rule="evenodd" clip-rule="evenodd" d="M4.10456 2.91331C3.77569 2.58445 3.2425 2.58445 2.91364 2.91331C2.58478 3.24218 2.58478 3.77537 2.91364 4.10423L6.80941 8L2.91364 11.8958C2.58478 12.2246 2.58478 12.7578 2.91364 13.0867C3.2425 13.4155 3.77569 13.4155 4.10456 13.0867L8.00033 9.19092L11.8961 13.0867C12.225 13.4155 12.7582 13.4155 13.087 13.0867C13.4159 12.7578 13.4159 12.2246 13.087 11.8958L9.19124 8L13.087 4.10423C13.4159 3.77537 13.4159 3.24218 13.087 2.91331C12.7582 2.58445 12.225 2.58445 11.8961 2.91331L8.00033 6.80908L4.10456 2.91331Z" fill="#8C8A97"/>
</svg>