<svg width="40" height="40" viewBox="0 0 40 40" fill="none" xmlns="http://www.w3.org/2000/svg">
<rect width="40" height="40" fill="#F5F5F5"/>
<g clip-path="url(#clip0_2_4)">
<g filter="url(#filter0_d_2_4)">
<rect x="-24" y="-24" width="200" height="260" rx="6" fill="white" shape-rendering="crispEdges"/>
<path fill-rule="evenodd" clip-rule="evenodd" d="M11.9627 7.32024C12.2663 7.73963 12.1725 8.32576 11.7531 8.62939C10.8513 9.28222 10.0315 10.0337 9.31301 10.8754C8.97684 11.2692 8.38508 11.3159 7.9913 10.9797C7.59751 10.6435 7.55081 10.0518 7.88699 9.65796C8.70512 8.69963 9.63533 7.84778 10.6536 7.11061C11.073 6.80699 11.6591 6.90084 11.9627 7.32024Z" fill="#FBAB34"/>
<path fill-rule="evenodd" clip-rule="evenodd" d="M29.1122 31.9482C29.4004 32.3784 29.2853 32.9607 28.8551 33.2489C26.3227 34.9454 23.277 35.9375 20 35.9375C18.3848 35.9375 16.828 35.693 15.3607 35.247C14.8653 35.0964 14.5858 34.5727 14.7364 34.0773C14.8869 33.582 15.4106 33.3024 15.906 33.453C17.202 33.847 18.5752 34.0625 20 34.0625C22.893 34.0625 25.5773 33.1879 27.8115 31.6911C28.2417 31.403 28.824 31.518 29.1122 31.9482Z" fill="#FBAB34"/>
<path fill-rule="evenodd" clip-rule="evenodd" d="M5.55851 24.1163C6.04654 23.9434 6.58237 24.1988 6.75532 24.6868C7.63242 27.1618 9.17043 29.3212 11.1709 30.9374C11.5736 31.2628 11.6363 31.8531 11.3109 32.2559C10.9855 32.6586 10.3952 32.7213 9.99248 32.3959C7.7229 30.5622 5.98091 28.1149 4.98802 25.3132C4.81506 24.8251 5.07048 24.2893 5.55851 24.1163Z" fill="#FBAB34"/>
<path fill-rule="evenodd" clip-rule="evenodd" d="M6.18472 14.1163C6.67277 14.2892 6.92825 14.825 6.75536 15.3131C6.23342 16.7864 5.9375 18.3573 5.9375 20C5.9375 20.5178 5.51777 20.9375 5 20.9375C4.48223 20.9375 4.0625 20.5178 4.0625 20C4.0625 18.1293 4.39991 16.347 4.98798 14.6869C5.16087 14.1989 5.69667 13.9434 6.18472 14.1163Z" fill="#FBAB34"/>
<path fill-rule="evenodd" clip-rule="evenodd" d="M20 5.9375C18.5752 5.9375 17.202 6.15302 15.906 6.54697C15.4106 6.69756 14.8869 6.41805 14.7364 5.92266C14.5858 5.42728 14.8653 4.90361 15.3607 4.75303C16.828 4.30698 18.3848 4.0625 20 4.0625C28.8028 4.0625 35.9375 11.1972 35.9375 20C35.9375 23.2887 34.9208 26.3262 33.2159 28.8571C32.9266 29.2865 32.344 29.4001 31.9145 29.1109C31.4851 28.8216 31.3715 28.239 31.6608 27.8095C33.1692 25.5704 34.0625 22.8946 34.0625 20C34.0625 12.2328 27.7672 5.9375 20 5.9375Z" fill="#FBAB34"/>
<path fill-rule="evenodd" clip-rule="evenodd" d="M14.7042 19.9667C14.7042 19.4489 15.1239 19.0292 15.6417 19.0292H22.8C25.0128 19.0292 26.8075 20.8239 26.8075 23.0367C26.8075 25.2481 25.0141 27.0408 22.8017 27.0408H15.6417C15.1239 27.0408 14.7042 26.6211 14.7042 26.1033V19.9667ZM16.5792 20.9042V25.1658H22.8017C23.9792 25.1658 24.9325 24.2119 24.9325 23.0367C24.9325 21.8594 23.9772 20.9042 22.8 20.9042H16.5792Z" fill="#FBAB34"/>
<path fill-rule="evenodd" clip-rule="evenodd" d="M14.7042 13.6367C14.7042 13.1189 15.1239 12.6992 15.6417 12.6992H22.025C24.2911 12.6992 26.1275 14.5356 26.1275 16.8017C26.1275 19.0678 24.2911 20.9042 22.025 20.9042C21.5072 20.9042 21.0875 20.4844 21.0875 19.9667C21.0875 19.4489 21.5072 19.0292 22.025 19.0292C23.2556 19.0292 24.2525 18.0322 24.2525 16.8017C24.2525 15.5711 23.2556 14.5742 22.025 14.5742H16.5792V19.9667C16.5792 20.4844 16.1594 20.9042 15.6417 20.9042C15.1239 20.9042 14.7042 20.4844 14.7042 19.9667V13.6367Z" fill="#FBAB34"/>
<path fill-rule="evenodd" clip-rule="evenodd" d="M19.64 10.8808C20.1578 10.8808 20.5775 11.3006 20.5775 11.8183V13.6317C20.5775 14.1494 20.1578 14.5692 19.64 14.5692C19.1222 14.5692 18.7025 14.1494 18.7025 13.6317V11.8183C18.7025 11.3006 19.1222 10.8808 19.64 10.8808Z" fill="#FBAB34"/>
<path fill-rule="evenodd" clip-rule="evenodd" d="M19.64 25.1992C20.1578 25.1992 20.5775 25.6189 20.5775 26.1367V28.1817C20.5775 28.6994 20.1578 29.1192 19.64 29.1192C19.1222 29.1192 18.7025 28.6994 18.7025 28.1817V26.1367C18.7025 25.6189 19.1222 25.1992 19.64 25.1992Z" fill="#FBAB34"/>
</g>
</g>
<rect x="-67.5" y="-43.5" width="814" height="357" rx="4.5" stroke="#9747FF" stroke-dasharray="10 5"/>
<defs>
<filter id="filter0_d_2_4" x="-48" y="-36" width="248" height="308" filterUnits="userSpaceOnUse" color-interpolation-filters="sRGB">
<feFlood flood-opacity="0" result="BackgroundImageFix"/>
<feColorMatrix in="SourceAlpha" type="matrix" values="0 0 0 0 0 0 0 0 0 0 0 0 0 0 0 0 0 0 127 0" result="hardAlpha"/>
<feOffset dy="12"/>
<feGaussianBlur stdDeviation="12"/>
<feComposite in2="hardAlpha" operator="out"/>
<feColorMatrix type="matrix" values="0 0 0 0 0 0 0 0 0 0 0 0 0 0 0 0 0 0 0.05 0"/>
<feBlend mode="normal" in2="BackgroundImageFix" result="effect1_dropShadow_2_4"/>
<feBlend mode="normal" in="SourceGraphic" in2="effect1_dropShadow_2_4" result="shape"/>
</filter>
<clipPath id="clip0_2_4">
<rect width="320" height="316" fill="white" transform="translate(-48 -24)"/>
</clipPath>
</defs>
</svg>
