<svg width="496" height="84" viewBox="0 0 496 84" fill="none" xmlns="http://www.w3.org/2000/svg">
<path d="M196.27 48.4906C196.27 47.4891 196.112 46.5903 195.797 45.7942C195.508 44.9725 194.957 44.2277 194.142 43.5601C193.328 42.8667 192.185 42.1862 190.714 41.5185C189.243 40.8508 187.339 40.1575 185.001 39.4384C182.401 38.6167 179.931 37.6922 177.594 36.665C175.282 35.6378 173.233 34.4437 171.447 33.0826C169.687 31.6959 168.295 30.0909 167.27 28.2676C166.272 26.4443 165.773 24.3257 165.773 21.9118C165.773 19.5749 166.298 17.4563 167.349 15.556C168.4 13.63 169.871 11.9865 171.762 10.6254C173.653 9.23872 175.886 8.173 178.46 7.42828C181.061 6.68356 183.911 6.3112 187.011 6.3112C191.24 6.3112 194.93 7.05592 198.082 8.54536C201.235 10.0348 203.677 12.0764 205.411 14.67C207.171 17.2637 208.051 20.2298 208.051 23.5682H196.309C196.309 21.9247 195.955 20.4866 195.246 19.2539C194.563 17.9956 193.512 17.0069 192.093 16.2879C190.701 15.5688 188.941 15.2093 186.814 15.2093C184.765 15.2093 183.057 15.5175 181.691 16.1338C180.325 16.7244 179.301 17.5334 178.618 18.5606C177.935 19.5621 177.594 20.692 177.594 21.9503C177.594 22.9005 177.83 23.7608 178.303 24.5312C178.802 25.3016 179.537 26.0206 180.509 26.6883C181.481 27.356 182.676 27.9851 184.095 28.5758C185.513 29.1664 187.155 29.7442 189.02 30.3092C192.146 31.2337 194.891 32.2737 197.255 33.4293C199.645 34.5849 201.642 35.8817 203.244 37.3198C204.846 38.7579 206.055 40.3886 206.869 42.2119C207.683 44.0351 208.09 46.1024 208.09 48.4136C208.09 50.8532 207.605 53.036 206.633 54.962C205.661 56.888 204.255 58.5187 202.417 59.854C200.578 61.1894 198.385 62.2038 195.837 62.8971C193.289 63.5905 190.439 63.9372 187.286 63.9372C184.449 63.9372 181.652 63.5776 178.894 62.8586C176.136 62.1139 173.627 60.9968 171.368 59.5074C169.135 58.0179 167.349 56.1176 166.009 53.8064C164.67 51.4952 164 48.7603 164 45.6016H175.86C175.86 47.3479 176.136 48.8245 176.687 50.0314C177.239 51.2384 178.014 52.2142 179.012 52.9589C180.036 53.7037 181.245 54.2429 182.637 54.5768C184.055 54.9106 185.605 55.0775 187.286 55.0775C189.335 55.0775 191.016 54.7951 192.33 54.2301C193.669 53.6651 194.655 52.8819 195.285 51.8804C195.942 50.8789 196.27 49.7489 196.27 48.4906Z" fill="#8C8A97"/>
<path d="M228.067 58.4673L239.375 21.4881H251.551L234.411 69.4455C234.043 70.4984 233.544 71.6283 232.914 72.8353C232.309 74.0422 231.482 75.185 230.431 76.2636C229.407 77.3678 228.107 78.2666 226.53 78.96C224.981 79.6533 223.076 80 220.817 80C219.74 80 218.86 79.9358 218.177 79.8074C217.494 79.679 216.68 79.4992 215.734 79.2681V71.1404C216.023 71.1404 216.325 71.1404 216.641 71.1404C216.956 71.1661 217.258 71.1789 217.547 71.1789C219.044 71.1789 220.266 71.012 221.211 70.6782C222.157 70.3443 222.919 69.8307 223.497 69.1374C224.074 68.4697 224.534 67.5966 224.876 66.518L228.067 58.4673ZM223.339 21.4881L232.598 51.6878L234.214 63.4364L226.491 64.2453L211.164 21.4881H223.339Z" fill="#8C8A97"/>
<path d="M267.193 30.3862V63.1668H255.845V21.4881H266.484L267.193 30.3862ZM265.538 40.8637H262.465C262.465 37.7821 262.872 35.0086 263.686 32.5433C264.501 30.0524 265.643 27.9338 267.114 26.1875C268.585 24.4156 270.332 23.0674 272.355 22.1429C274.404 21.1928 276.689 20.7177 279.211 20.7177C281.207 20.7177 283.032 21.0002 284.687 21.5651C286.342 22.1301 287.761 23.0289 288.943 24.2615C290.151 25.4942 291.07 27.1249 291.701 29.1536C292.358 31.1823 292.686 33.6604 292.686 36.5879V63.1668H281.259V36.5494C281.259 34.7005 280.997 33.2624 280.471 32.2352C279.946 31.208 279.171 30.4889 278.147 30.0781C277.148 29.6415 275.914 29.4232 274.443 29.4232C272.919 29.4232 271.593 29.7185 270.463 30.3092C269.36 30.8998 268.441 31.7216 267.705 32.7745C266.996 33.8017 266.457 35.0086 266.09 36.3953C265.722 37.7821 265.538 39.2715 265.538 40.8637Z" fill="#8C8A97"/>
<path d="M318.927 55.2701C320.32 55.2701 321.554 55.0133 322.631 54.4997C323.708 53.9605 324.549 53.2157 325.153 52.2656C325.783 51.2897 326.112 50.147 326.138 48.8373H336.816C336.789 51.7648 335.988 54.3713 334.412 56.6569C332.836 58.9167 330.722 60.7015 328.069 62.0112C325.416 63.2952 322.447 63.9372 319.164 63.9372C315.854 63.9372 312.965 63.3979 310.495 62.3193C308.053 61.2407 306.017 59.7513 304.388 57.851C302.76 55.925 301.538 53.6908 300.724 51.1485C299.91 48.5805 299.502 45.8327 299.502 42.9052V41.7881C299.502 38.8349 299.91 36.0872 300.724 33.5449C301.538 30.9769 302.76 28.7427 304.388 26.8424C306.017 24.9164 308.053 23.4141 310.495 22.3355C312.938 21.257 315.802 20.7177 319.085 20.7177C322.579 20.7177 325.639 21.3725 328.266 22.6822C330.919 23.9919 332.994 25.8665 334.491 28.3061C336.015 30.7201 336.789 33.5834 336.816 36.8961H326.138C326.112 35.5094 325.81 34.2511 325.232 33.1211C324.68 31.9912 323.866 31.0924 322.789 30.4247C321.738 29.7314 320.438 29.3847 318.888 29.3847C317.233 29.3847 315.88 29.7314 314.83 30.4247C313.779 31.0924 312.965 32.0169 312.387 33.1982C311.809 34.3538 311.402 35.6763 311.165 37.1657C310.955 38.6295 310.85 40.1703 310.85 41.7881V42.9052C310.85 44.5231 310.955 46.0767 311.165 47.5661C311.375 49.0556 311.769 50.3781 312.347 51.5337C312.951 52.6893 313.779 53.6009 314.83 54.2686C315.88 54.9363 317.246 55.2701 318.927 55.2701Z" fill="#8C8A97"/>
<path d="M354.468 4V63.1668H343.12V4H354.468ZM352.852 40.8637H349.74C349.766 37.9618 350.16 35.2911 350.922 32.8515C351.683 30.3862 352.773 28.2548 354.192 26.4572C355.61 24.6339 357.305 23.2215 359.275 22.22C361.271 21.2184 363.478 20.7177 365.894 20.7177C367.996 20.7177 369.9 21.013 371.607 21.6036C373.341 22.1686 374.825 23.0931 376.06 24.3771C377.321 25.6354 378.293 27.2918 378.976 29.3462C379.659 31.4006 380 33.8915 380 36.8191V63.1668H368.574V36.742C368.574 34.8931 368.298 33.4421 367.746 32.3893C367.221 31.3107 366.446 30.5531 365.421 30.1166C364.423 29.6543 363.189 29.4232 361.718 29.4232C360.089 29.4232 358.697 29.7185 357.541 30.3092C356.412 30.8998 355.505 31.7216 354.822 32.7745C354.139 33.8017 353.64 35.0086 353.325 36.3953C353.01 37.7821 352.852 39.2715 352.852 40.8637Z" fill="#8C8A97"/>
<path d="M34.6927 44.2616H46.3742C46.1397 48.1073 45.0849 51.5213 43.2096 54.5036C41.3604 57.4859 38.7688 59.8143 35.435 61.4886C32.1272 63.1628 28.1422 64 23.4801 64C19.8337 64 16.565 63.3721 13.6739 62.1164C10.7829 60.8345 8.30854 59.0033 6.25094 56.6226C4.21938 54.242 2.66967 51.3643 1.6018 47.9895C0.533934 44.6148 0 40.8345 0 36.6488V32.6854C0 28.4997 0.546957 24.7194 1.64087 21.3447C2.76083 17.9438 4.34961 15.053 6.40721 12.6723C8.49086 10.2917 10.9782 8.46043 13.8693 7.17855C16.7603 5.89666 19.99 5.25572 23.5582 5.25572C28.2985 5.25572 32.2965 6.11903 35.5522 7.84565C38.834 9.57227 41.3734 11.9529 43.1705 14.9876C44.9937 18.0222 46.0877 21.4755 46.4523 25.3473H34.7318C34.6016 23.0451 34.1458 21.0961 33.3644 19.5003C32.583 17.8784 31.3979 16.6619 29.8092 15.8509C28.2464 15.0137 26.1628 14.5952 23.5582 14.5952C21.6048 14.5952 19.8988 14.9614 18.4403 15.6939C16.9817 16.4264 15.7576 17.5383 14.7678 19.0294C13.7781 20.5206 13.0358 22.4042 12.5409 24.6802C12.0721 26.93 11.8377 29.5723 11.8377 32.6069V36.6488C11.8377 39.605 12.0591 42.208 12.5019 44.4578C12.9447 46.6815 13.6218 48.5651 14.5334 50.1086C15.4711 51.6259 16.6692 52.777 18.1277 53.5618C19.6123 54.3205 21.3964 54.6998 23.4801 54.6998C25.9284 54.6998 27.9469 54.3074 29.5357 53.5226C31.1245 52.7377 32.3356 51.5736 33.169 50.0301C34.0285 48.4866 34.5364 46.5638 34.6927 44.2616Z" fill="#FBAB34"/>
<path d="M51.5702 42.4173V41.5932C51.5702 38.48 52.013 35.6154 52.8986 32.9993C53.7841 30.3571 55.0734 28.068 56.7663 26.1321C58.4593 24.1962 60.5429 22.692 63.0173 21.6194C65.4916 20.5206 68.3306 19.9712 71.5342 19.9712C74.7378 19.9712 77.5898 20.5206 80.0902 21.6194C82.5905 22.692 84.6872 24.1962 86.3802 26.1321C88.0992 28.068 89.4014 30.3571 90.287 32.9993C91.1725 35.6154 91.6153 38.48 91.6153 41.5932V42.4173C91.6153 45.5042 91.1725 48.3689 90.287 51.0111C89.4014 53.6272 88.0992 55.9163 86.3802 57.8783C84.6872 59.8143 82.6036 61.3185 80.1292 62.3911C77.6549 63.4637 74.8159 64 71.6123 64C68.4087 64 65.5567 63.4637 63.0563 62.3911C60.582 61.3185 58.4853 59.8143 56.7663 57.8783C55.0734 55.9163 53.7841 53.6272 52.8986 51.0111C52.013 48.3689 51.5702 45.5042 51.5702 42.4173ZM62.8219 41.5932V42.4173C62.8219 44.1962 62.9782 45.8574 63.2908 47.4009C63.6033 48.9444 64.0982 50.3048 64.7754 51.482C65.4786 52.6331 66.3902 53.5356 67.5101 54.1897C68.6301 54.8437 69.9975 55.1707 71.6123 55.1707C73.175 55.1707 74.5164 54.8437 75.6364 54.1897C76.7563 53.5356 77.6549 52.6331 78.3321 51.482C79.0093 50.3048 79.5041 48.9444 79.8167 47.4009C80.1553 45.8574 80.3246 44.1962 80.3246 42.4173V41.5932C80.3246 39.8666 80.1553 38.2446 79.8167 36.7273C79.5041 35.1838 78.9962 33.8234 78.293 32.6462C77.6158 31.4428 76.7172 30.501 75.5973 29.8208C74.4773 29.1406 73.123 28.8005 71.5342 28.8005C69.9454 28.8005 68.591 29.1406 67.4711 29.8208C66.3772 30.501 65.4786 31.4428 64.7754 32.6462C64.0982 33.8234 63.6033 35.1838 63.2908 36.7273C62.9782 38.2446 62.8219 39.8666 62.8219 41.5932Z" fill="#FBAB34"/>
<path d="M110.407 20.756V63.2152H99.1164V20.756H110.407ZM98.4132 9.68999C98.4132 8.04186 98.9862 6.68149 100.132 5.60889C101.278 4.5363 102.815 4 104.742 4C106.644 4 108.167 4.5363 109.313 5.60889C110.485 6.68149 111.071 8.04186 111.071 9.68999C111.071 11.3381 110.485 12.6985 109.313 13.7711C108.167 14.8437 106.644 15.38 104.742 15.38C102.815 15.38 101.278 14.8437 100.132 13.7711C98.9862 12.6985 98.4132 11.3381 98.4132 9.68999Z" fill="#FBAB34"/>
<path d="M130.723 29.8208V63.2152H119.471V20.756H130.02L130.723 29.8208ZM129.082 40.4944H126.035C126.035 37.3551 126.438 34.5298 127.246 32.0183C128.053 29.4807 129.186 27.3224 130.645 25.5435C132.103 23.7384 133.835 22.3649 135.841 21.4232C137.872 20.4552 140.138 19.9712 142.639 19.9712C144.618 19.9712 146.428 20.259 148.069 20.8345C149.71 21.4101 151.116 22.3257 152.288 23.5814C153.487 24.8371 154.398 26.4984 155.023 28.5651C155.674 30.6318 156 33.1563 156 36.1387V63.2152H144.67V36.0994C144.67 34.2158 144.41 32.7508 143.889 31.7044C143.368 30.6579 142.6 29.9254 141.584 29.5069C140.594 29.0621 139.37 28.8398 137.911 28.8398C136.401 28.8398 135.085 29.1406 133.965 29.7423C132.872 30.344 131.96 31.1812 131.231 32.2538C130.527 33.3002 129.993 34.5298 129.629 35.9424C129.264 37.3551 129.082 38.8725 129.082 40.4944Z" fill="#FBAB34"/>
<path fill-rule="evenodd" clip-rule="evenodd" d="M479.129 16.8705C465.251 2.99189 442.749 2.99188 428.871 16.8705C414.992 30.7491 414.992 53.2508 428.871 67.1295C442.749 81.0081 465.251 81.0081 479.129 67.1295C493.008 53.2514 493.008 30.7508 479.131 16.872L479.129 16.8705ZM483.698 12.3015C500.101 28.7036 500.101 55.2965 483.698 71.6985C467.296 88.1005 440.703 88.1005 424.302 71.6985C407.899 55.2964 407.899 28.7035 424.302 12.3015C440.704 -4.10051 467.297 -4.10052 483.698 12.3015ZM449.653 32.8372C448.986 34.3188 448.615 35.9623 448.615 37.6924C448.615 44.2348 453.919 49.5385 460.461 49.5385C460.53 49.5385 460.599 49.538 460.668 49.5368C460.88 49.506 461.096 49.4962 461.313 49.5085C467.461 49.0723 472.307 43.9493 472.307 37.6924C472.307 31.1493 467.007 25.8462 460.461 25.8462C455.777 25.8462 451.727 28.5654 449.805 32.5115C449.76 32.6232 449.709 32.7319 449.653 32.8372ZM442.255 35.7562C438.361 37.6873 435.692 41.6829 435.692 46.3078C435.692 52.8502 440.996 58.1539 447.538 58.1539C450.491 58.1539 453.188 57.0621 455.261 55.2508C447.683 53.0098 442.154 45.9968 442.154 37.6924C442.154 37.0384 442.188 36.3925 442.255 35.7562ZM463.137 55.806C459.938 61.0609 454.182 64.6155 447.538 64.6155C437.427 64.6155 429.23 56.4189 429.23 46.3078C429.23 37.1323 435.989 29.6067 444.761 28.2704C447.963 22.9464 453.796 19.3847 460.461 19.3847C470.577 19.3847 478.769 27.5819 478.769 37.6924C478.769 46.8943 471.983 54.5113 463.137 55.806Z" fill="#FBAB34"/>
</svg>
