<svg width="40" height="40" viewBox="0 0 40 40" fill="none" xmlns="http://www.w3.org/2000/svg">
<path fill-rule="evenodd" clip-rule="evenodd" d="M8.33333 4.0625C5.9739 4.0625 4.0625 5.9739 4.0625 8.33333V24.2365C3.08768 24.613 2.39584 25.5594 2.39584 26.6667V28.3333C2.39584 29.7711 3.56224 30.9375 5.00001 30.9375H24.0625V33.3333C24.0625 34.7711 25.2289 35.9375 26.6667 35.9375H35C36.4378 35.9375 37.6042 34.7711 37.6042 33.3333V19.1667C37.6042 17.7289 36.4378 16.5625 35 16.5625H34.2708V8.33333C34.2708 5.9739 32.3594 4.0625 30 4.0625H8.33333ZM35.7292 29.0625V19.1667C35.7292 18.7644 35.4022 18.4375 35 18.4375H26.6667C26.2644 18.4375 25.9375 18.7644 25.9375 19.1667V24.9963L25.9375 25L25.9375 25.0037V29.0625H35.7292ZM25.9375 30.9375H35.7292V33.3333C35.7292 33.7356 35.4022 34.0625 35 34.0625H26.6667C26.2644 34.0625 25.9375 33.7356 25.9375 33.3333V30.9375ZM32.3958 8.33333V16.5625H26.6667C25.2289 16.5625 24.0625 17.7289 24.0625 19.1667V24.0625H5.9375V8.33333C5.9375 7.00943 7.00943 5.9375 8.33333 5.9375H30C31.3239 5.9375 32.3958 7.00943 32.3958 8.33333ZM5.00001 25.9375H24.0625V29.0625H5.00001C4.59777 29.0625 4.27084 28.7356 4.27084 28.3333V26.6667C4.27084 26.2644 4.59777 25.9375 5.00001 25.9375Z" fill="#FBAB34"/>
</svg>
