<svg xmlns="http://www.w3.org/2000/svg" width="58" height="48" viewBox="0 0 58 48" fill="none">
  <circle cx="40.9995" cy="31.0581" r="16.9409" fill="#F7F7F7"/>
  <circle cx="50.8804" cy="5.64696" r="5.64696" fill="#F7F7F7"/>
  <circle cx="8.88392" cy="14.4699" r="8.82338" fill="#F7F7F7"/>
  <circle cx="3.94283" cy="29.2944" r="3.88229" fill="#F7F7F7"/>
  <path d="M11.001 30.0018L16.6479 23.649L14.1774 15.5315L17.7067 14.8256L37.1182 14.4727L47.3533 15.5315L50.1768 20.1196V37.4134L45.9416 41.2957H30.7653L20.1773 44.4721L12.4127 39.531L11.001 30.0018Z" fill="#F4F3F8"/>
  <path d="M26.4485 28.7642C27.0536 29.3412 27.0536 30.2766 26.4485 30.8536L24.3398 32.8642L26.4485 34.8748C27.0536 35.4517 27.0536 36.3872 26.4485 36.9641C25.8434 37.5411 24.8623 37.5411 24.2572 36.9641L22.1485 34.9535L20.0399 36.9641C19.4348 37.5411 18.4537 37.5411 17.8486 36.9641C17.2435 36.3872 17.2435 35.4517 17.8486 34.8748L19.9573 32.8642L17.8486 30.8536C17.2435 30.2766 17.2435 29.3412 17.8486 28.7642C18.4537 28.1873 19.4348 28.1873 20.0399 28.7642L22.1485 30.7748L24.2572 28.7642C24.8623 28.1873 25.8434 28.1873 26.4485 28.7642Z" fill="#E0DEEA"/>
  <path fill-rule="evenodd" clip-rule="evenodd" d="M43.3247 8.24499V13.3651H43.8412C48.1202 13.3651 51.5885 16.6721 51.5885 20.7521V35.8197C51.5885 39.8859 48.1058 43.2067 43.8412 43.2067H29.1572C27.1388 44.4528 24.7324 45.1764 22.1486 45.1764C15.0185 45.1764 9.23633 39.6632 9.23633 32.8647C9.23633 29.2991 10.8269 26.087 13.3683 23.8384V16.2998C13.3683 13.2268 15.3643 10.4742 18.378 9.38835L35.6353 3.17524C39.3516 1.8407 43.3247 4.45532 43.3247 8.24499ZM19.4734 12.1524L36.7288 5.93999C38.4211 5.3326 40.2258 6.52311 40.2258 8.24499V13.3651H19.0496C18.491 13.3651 17.9511 13.4419 17.4412 13.5851C17.9558 12.9515 18.6516 12.4486 19.4734 12.1524ZM16.4672 21.8062C18.1817 21.0037 20.1101 20.553 22.1486 20.553C29.2809 20.553 35.0609 26.0664 35.0609 32.8647C35.0609 35.6361 34.1003 38.194 32.4791 40.2519H43.8412C46.3943 40.2519 48.4896 38.254 48.4896 35.8197V20.7521C48.4896 18.304 46.4087 16.3199 43.8412 16.3199H41.8466C41.823 16.3209 41.7992 16.3215 41.7752 16.3215C41.7513 16.3215 41.7275 16.3209 41.7038 16.3199H19.0496C17.6225 16.3199 16.4672 17.4215 16.4672 18.7823V21.8062ZM27.8355 40.4911C30.3332 38.7947 31.9619 36.0108 31.9619 32.8647C31.9619 27.698 27.569 23.5078 22.1486 23.5078C16.73 23.5078 12.3353 27.6982 12.3353 32.8647C12.3353 38.0313 16.73 42.2216 22.1486 42.2216C24.2293 42.2216 26.1586 41.6042 27.7461 40.5511C27.7751 40.5301 27.8049 40.5101 27.8355 40.4911Z" fill="#E0DEEA"/>
</svg>