<svg xmlns="http://www.w3.org/2000/svg" width="16" height="16" viewBox="0 0 16 16" fill="none">
  <path fill-rule="evenodd" clip-rule="evenodd" d="M6.32252 2.00862C7.24906 1.08207 8.75127 1.08207 9.67781 2.00862C10.6044 2.93516 10.6044 4.43737 9.67781 5.36391C8.75127 6.29045 7.24906 6.29045 6.32252 5.36391C5.39598 4.43737 5.39598 2.93516 6.32252 2.00862ZM5.40744 1.09354C6.83937 -0.338389 9.16097 -0.338389 10.5929 1.09354C12.0248 2.52546 12.0248 4.84706 10.5929 6.27899C9.16097 7.71092 6.83937 7.71092 5.40744 6.27899C3.97551 4.84706 3.97551 2.52546 5.40744 1.09354ZM8.00019 8.65395C6.16006 8.65395 4.31808 9.09883 2.91402 9.91622C1.51578 10.7302 0.451172 11.9844 0.451172 13.6078V14.4706C0.451172 15.3042 1.12738 15.9804 1.96098 15.9804H14.0394C14.873 15.9804 15.5492 15.3042 15.5492 14.4706V13.6078C15.5492 11.9844 14.4846 10.7302 13.0864 9.91622C11.6823 9.09883 9.84033 8.65395 8.00019 8.65395ZM1.74529 13.6078C1.74529 12.6206 2.38547 11.7214 3.56511 11.0346C4.73893 10.3513 6.34794 9.94807 8.00019 9.94807C9.65245 9.94807 11.2615 10.3513 12.4353 11.0346C13.6149 11.7214 14.2551 12.6206 14.2551 13.6078V14.4706C14.2551 14.5895 14.1583 14.6863 14.0394 14.6863H1.96098C1.8421 14.6863 1.74529 14.5895 1.74529 14.4706V13.6078Z" fill="#E0DEEA"/>
</svg>